<?xml version="1.0" encoding="UTF-8" standalone="no"?>
<!-- Created with Inkscape (http://www.inkscape.org/) -->

<svg
   width="512"
   height="512"
   viewBox="0 0 135.46667 135.46667"
   version="1.1"
   id="svg1"
   xml:space="preserve"
   inkscape:version="1.4.3 (0d15f75, 2025-12-25)"
   sodipodi:docname="Cursor_Installer_Creator.svg"
   xmlns:inkscape="http://www.inkscape.org/namespaces/inkscape"
   xmlns:sodipodi="http://sodipodi.sourceforge.net/DTD/sodipodi-0.dtd"
   xmlns="http://www.w3.org/2000/svg"
   xmlns:svg="http://www.w3.org/2000/svg"><sodipodi:namedview
     id="namedview1"
     pagecolor="#ffffff"
     bordercolor="#000000"
     borderopacity="0.25"
     inkscape:showpageshadow="2"
     inkscape:pageopacity="0.0"
     inkscape:pagecheckerboard="0"
     inkscape:deskcolor="#d1d1d1"
     inkscape:document-units="mm"
     inkscape:zoom="2"
     inkscape:cx="199.25"
     inkscape:cy="262.75"
     inkscape:window-width="2560"
     inkscape:window-height="1369"
     inkscape:window-x="-8"
     inkscape:window-y="-8"
     inkscape:window-maximized="1"
     inkscape:current-layer="svg1" /><defs
     id="defs1" /><g
     id="g6"
     inkscape:label="icon"
     transform="matrix(1.0791663,0,0,1.0791663,-5.3621997,-8.1381851)"><g
       id="g5"
       inkscape:label="package-group"
       transform="translate(0,5.8208336)"><path
         sodipodi:type="star"
         style="display:inline;fill:#989898;fill-opacity:1;stroke-width:0.4;paint-order:markers stroke fill"
         id="path3-8"
         inkscape:flatsided="true"
         sodipodi:sides="6"
         sodipodi:cx="67.696655"
         sodipodi:cy="122.41388"
         sodipodi:r1="38.556557"
         sodipodi:r2="33.390957"
         sodipodi:arg1="-1.5707963"
         sodipodi:arg2="-1.0471976"
         inkscape:rounded="0"
         inkscape:randomized="0"
         d="m 67.696656,83.857323 33.390954,19.278277 0,38.55656 -33.390956,19.27828 -33.390957,-19.27828 10e-7,-38.55656 z"
         transform="matrix(1.1093,0,0,0.65463968,-7.1622682,-20.518688)"
         inkscape:label="top-bg" /><g
         id="g4"
         style="fill:#ffffff;fill-opacity:1"
         inkscape:label="bgs"><path
           id="path3"
           style="fill:#ffffff;fill-opacity:1;stroke-width:0.4;paint-order:markers stroke fill"
           inkscape:label="bottom-bg"
           transform="matrix(1.277937,0,0,0.8951309,-18.665279,-21.323931)"
           d="m 67.68213,95.970835 33.40548,7.164765 v 38.55656 l -33.390956,19.27828 -33.390957,-19.27828 10e-7,-38.55656 z"
           sodipodi:nodetypes="ccccccc" /><rect
           style="fill:#ffffff;fill-opacity:1;stroke-width:0.359772;paint-order:markers stroke fill"
           id="rect2"
           width="48.057343"
           height="25.575085"
           x="39.665646"
           y="33.160843"
           ry="0"
           transform="matrix(0.91902629,0.39419625,-0.42315204,0.90605869,0,0)"
           inkscape:label="left-bg" /><rect
           style="fill:#ffffff;fill-opacity:1;stroke-width:0.359772;paint-order:markers stroke fill"
           id="rect2-7"
           width="48.057343"
           height="25.575085"
           x="-83.60968"
           y="86.746178"
           ry="0"
           transform="matrix(-0.91902629,0.39419625,0.42315204,0.90605869,0,0)"
           inkscape:label="right-bg" /></g><path
         d="M 126.57626,66.220975 115.68162,45.694797 a 2.7672219,2.7672219 0 0 0 -1.71306,-1.372046 c -0.005,-8.74e-4 -0.008,-0.0026 -0.0128,-0.0044 L 68.56919,32.067396 a 2.7758981,2.7758981 0 0 0 -1.441212,-9.61e-4 L 21.513164,44.317457 c -0.0051,0.0017 -0.0085,0.0035 -0.01374,0.0044 a 2.7662578,2.7662578 0 0 0 -1.715475,1.372762 L 8.8895531,66.220795 a 2.772283,2.772283 0 0 0 1.2635899,3.80499 l 9.478976,4.48077 v 28.039515 c 0,1.06379 0.608779,2.03383 1.567015,2.49584 l 45.443225,21.93196 a 2.7672219,2.7672219 0 0 0 1.204303,0.27547 c 0.407535,0 0.812667,-0.0937 1.187427,-0.27161 0.0061,-0.002 0.01179,-8.7e-4 0.01738,-0.004 L 114.4947,105.0414 a 2.7708369,2.7708369 0 0 0 1.56702,-2.49585 V 74.508695 c 0,-0.0362 -0.004,-0.0715 -0.005,-0.10725 l 9.25652,-4.37569 a 2.771319,2.771319 0 0 0 1.26336,-3.80523 z M 67.844968,37.613412 104.13723,47.409545 67.732903,60.901505 31.345936,47.416297 Z m -44.301817,12.822435 40.462848,14.996068 -8.91165,19.70724 -39.947337,-18.88372 z m 1.632088,50.370573 V 77.127185 l 30.098418,14.22773 a 2.7703549,2.7703549 0 0 0 2.140849,0.0959 2.77156,2.77156 0 0 0 1.569185,-1.45952 l 6.091651,-13.47123 V 120.0632 Z m 85.343081,0 -39.900102,19.2568 V 77.024025 l 5.863897,12.96729 a 2.772283,2.772283 0 0 0 2.525493,1.62968 c 0.405857,0 0.8105,-0.0889 1.184544,-0.26608 L 110.51832,77.019445 Z M 80.37146,85.138915 71.459572,65.431675 111.92242,50.435611 120.3188,66.255185 Z"
         fill="#000000"
         opacity="1"
         data-original="#000000"
         id="path1"
         style="fill:#000000;fill-opacity:1;stroke-width:0.241006"
         inkscape:label="package" /></g><path
       d="M 71.333398,65.387944 61.807682,44.891228 50.90238,60.132374 V 12.832268 l 36.788972,28.90562 H 69.034087 l 9.460021,20.299626 z"
       id="path1-4"
       style="fill:#ffffff;fill-opacity:1;stroke:#000000;stroke-width:10.5833;stroke-linejoin:round;stroke-dasharray:none;stroke-opacity:1;paint-order:stroke fill markers"
       inkscape:label="cursor" /><path
       d="M 87.953521,32.886178 H 74.672005 V 28.459007 H 87.953521 V 15.177493 h 4.42717 v 13.281514 h 13.281519 v 4.427171 H 92.380691 v 13.281511 h -4.42717 z"
       id="path1-7"
       style="fill:#ffffff;fill-opacity:1;stroke:#000000;stroke-width:10.5833;stroke-linejoin:round;stroke-dasharray:none;stroke-opacity:1;paint-order:stroke fill markers"
       inkscape:label="add" /></g></svg>
