<svg width="24px" height="24px" fill="#000000" version="1.1" viewBox="0 -960 960 960" xmlns="http://www.w3.org/2000/svg">
 <path d="m813.75-604.8q26.163 66.468 26.163 135.06 0 68.589-26.163 135.06t-79.196 119.5l-56.569-56.569q82.731-82.731 82.731-197.99 0-115.26-82.731-197.99-82.732-82.731-197.99-82.731-115.26 0-197.99 82.731-82.732 82.732-82.732 197.99 0 115.26 82.732 197.99l4.2426 4.2426v-87.681l80.61-1.4142v226.27h-226.27l1.4142-80.61h87.681l-4.2426-4.2426q-53.033-53.033-79.196-119.5-26.163-66.468-26.163-135.06t26.163-135.06 79.196-119.5q53.033-53.033 119.5-79.196 66.468-26.163 135.06-26.163 68.589 0 135.06 26.163 66.468 26.163 119.5 79.196t79.196 119.5z"/>
</svg>
