<svg enable-background="new 0 0 32 32" version="1.1" viewBox="0 0 32 32" xml:space="preserve" xmlns="http://www.w3.org/2000/svg">
	
	
	
	
	
	
	
	
	
	
	
	
	
	
	
<g transform="matrix(1 0 0 -1 2.868 37.356)" fill="#fffffe" stroke="#000001" stroke-miterlimit="10"><rect x="15" y="26" width="10" height="2"/><rect x="15" y="12" width="10" height="2"/><polygon points="22 21 22 19 24 17 24 14 16 14 16 17 18 19 18 21 16 23 16 26 24 26 24 23"/><line x1="17.5" x2="18.5" y1="24" y2="24"/><line x1="18.5" x2="19.5" y1="23" y2="23"/><line x1="19.5" x2="20.5" y1="22" y2="22"/><line x1="19.5" x2="20.5" y1="20" y2="20"/><line x1="19.5" x2="20.5" y1="17" y2="17"/><line x1="18.5" x2="19.5" y1="16" y2="16"/><line x1="20.5" x2="21.5" y1="16" y2="16"/><line x1="21.5" x2="22.5" y1="15" y2="15"/><line x1="17.5" x2="18.5" y1="15" y2="15"/><line x1="19.5" x2="20.5" y1="15" y2="15"/><line x1="19.5" x2="20.5" y1="24" y2="24"/><line x1="21.5" x2="22.5" y1="24" y2="24"/><polygon points="1.2639 14.208 1.2639 30 12.736 18.466 7.8016 18.466 9.8281 14.343 6.8834 12.85 4.623 17.484"/></g>
</svg>
