<svg enable-background="new 0 0 32 32" version="1.1" viewBox="0 0 32 32" xml:space="preserve" xmlns="http://www.w3.org/2000/svg">




































<polygon transform="matrix(1,0,0,-1,0,32)" points="22 25.5 22 21.5 18 17.5 18 15.5 22 11.5 22 6.5 10 6.5 10 11.5 14 15.5 14 17.5 10 21.5 10 25.5" fill="#fffffe"/><g stroke="#000001" stroke-miterlimit="10"><polyline transform="matrix(1,0,0,-1,0,32)" points="22 25.5 22 21.5 18 17.5 18 15.5 22 11.5 22 6.5" fill="none"/><polyline transform="matrix(1,0,0,-1,0,32)" points="10 6.5 10 11.5 14 15.5 14 17.5 10 21.5 10 25.5" fill="none"/><rect transform="scale(1,-1)" x="9" y="-27.5" width="14" height="2" fill="#fffffe"/><rect transform="scale(1,-1)" x="9" y="-6.5" width="14" height="2" fill="#fffffe"/></g><g fill="none" stroke="#000001" stroke-miterlimit="10"><line x1="15.5" x2="16.5" y1="17.5" y2="17.5"/><line x1="16.5" x2="17.5" y1="18.5" y2="18.5"/><line x1="16.5" x2="17.5" y1="20.5" y2="20.5"/><line x1="14.5" x2="15.5" y1="20.5" y2="20.5"/><line x1="15.5" x2="16.5" y1="21.5" y2="21.5"/><line x1="13.5" x2="14.5" y1="21.5" y2="21.5"/><line x1="14.5" x2="15.5" y1="22.5" y2="22.5"/><line x1="16.5" x2="17.5" y1="22.5" y2="22.5"/><line x1="17.5" x2="18.5" y1="21.5" y2="21.5"/><line x1="18.5" x2="19.5" y1="22.5" y2="22.5"/><line x1="19.5" x2="20.5" y1="23.5" y2="23.5"/><line x1="17.5" x2="18.5" y1="23.5" y2="23.5"/><line x1="15.5" x2="16.5" y1="23.5" y2="23.5"/><line x1="13.5" x2="14.5" y1="23.5" y2="23.5"/><line x1="12.5" x2="13.5" y1="22.5" y2="22.5"/><line x1="11.5" x2="12.5" y1="23.5" y2="23.5"/><line x1="11.5" x2="12.5" y1="8.5" y2="8.5"/><line x1="13.5" x2="14.5" y1="8.5" y2="8.5"/><line x1="15.5" x2="16.5" y1="8.5" y2="8.5"/><line x1="17.5" x2="18.5" y1="8.5" y2="8.5"/><line x1="19.5" x2="20.5" y1="8.5" y2="8.5"/><line x1="12.5" x2="13.5" y1="9.5" y2="9.5"/><line x1="14.5" x2="15.5" y1="9.5" y2="9.5"/><line x1="16.5" x2="17.5" y1="9.5" y2="9.5"/><line x1="18.5" x2="19.5" y1="9.5" y2="9.5"/><line x1="13.5" x2="14.5" y1="10.5" y2="10.5"/><line x1="15.5" x2="16.5" y1="10.5" y2="10.5"/><line x1="14.5" x2="15.5" y1="11.5" y2="11.5"/><line x1="16.5" x2="17.5" y1="11.5" y2="11.5"/><line x1="15.5" x2="16.5" y1="12.5" y2="12.5"/><line x1="17.5" x2="18.5" y1="10.5" y2="10.5"/><line x1="15.5" x2="16.5" y1="15.5" y2="15.5"/></g>
</svg>
